# xmcd
#
# Track frame offsets:
#	150
#	28597
#	52610
#	73961
#	98385
#	124863
#	147973
#	172599
#	199058
#	220234
#	239724
#	261849
#
# Disc length: 3786 seconds
# Revision: 0
# Processed by: cddbd v1.5.2PL0 Copyright (c) Steve Scherf et al.
# Submitted via: dBpowerAMP V12.0
#
DISCID=a60ec80c
DTITLE=Union - Union
DYEAR=2011
DGENRE=World
TTITLE0=Nou Opé
TTITLE1=Ban Nouvel
TTITLE2=F F S K
TTITLE3=Es Ou Ké Save Si Sé Mwen
TTITLE4=Pa Fè La Fèt
TTITLE5=Union Ka Baw Envi
TTITLE6=Suzy
TTITLE7=Fèw Ou La
TTITLE8=Déziw An Mwen
TTITLE9=Mwen Love You
TTITLE10=Kaw Pè
TTITLE11=Ou Ja Mayé Rètè
EXTD=
EXTT0=
EXTT1=
EXTT2=
EXTT3=
EXTT4=
EXTT5=
EXTT6=
EXTT7=
EXTT8=
EXTT9=
EXTT10=
EXTT11=
PLAYORDER=
